<?xml version="1.0" encoding="UTF-8"?>
<svg xmlns="http://www.w3.org/2000/svg" xmlns:xlink="http://www.w3.org/1999/xlink" width="px" height="px" viewBox="0 0 384 384" version="1.1">
<g id="surface1">
<path style=" stroke:none;fill-rule:nonzero;fill:rgb(0%,86.274511%,50.980395%);fill-opacity:1;" d="M 211.078125 298.25 L 328.738281 298.25 C 332.496094 298.25 336.089844 296.929688 339.339844 295.070312 C 342.589844 293.210938 345.945312 290.875 347.820312 287.648438 C 349.695312 284.425781 351 280.769531 351 277.050781 C 351 273.328125 349.699219 269.671875 347.820312 266.449219 L 268.320312 129.710938 C 266.445312 126.488281 264.152344 124.152344 260.898438 122.289062 C 257.648438 120.429688 252.992188 119.109375 249.238281 119.109375 C 245.484375 119.109375 241.890625 120.429688 238.640625 122.289062 C 235.390625 124.152344 233.097656 126.488281 231.21875 129.710938 L 211.078125 164.691406 L 170.800781 96.847656 C 168.921875 93.625 166.632812 90.230469 163.378906 88.371094 C 160.128906 86.507812 156.535156 86.25 152.78125 86.25 C 149.027344 86.25 145.433594 86.507812 142.179688 88.371094 C 138.929688 90.230469 135.578125 93.625 133.699219 96.847656 L 35.121094 266.449219 C 33.242188 269.671875 33 273.328125 33 277.050781 C 33 280.769531 33.242188 284.425781 35.121094 287.648438 C 36.996094 290.871094 40.347656 293.210938 43.601562 295.070312 C 46.851562 296.929688 50.445312 298.25 54.199219 298.25 L 128.398438 298.25 C 157.800781 298.25 179.199219 285.0625 194.121094 260.089844 L 230.160156 197.550781 L 249.238281 164.691406 L 307.539062 264.328125 L 230.160156 264.328125 Z M 127.339844 264.328125 L 75.398438 264.328125 L 152.78125 130.769531 L 192 197.550781 L 166.019531 242.839844 C 156.113281 259.039062 144.816406 264.328125 127.339844 264.328125 Z M 127.339844 264.328125 "/>
</g>
</svg>
